G04*
G04 #@! TF.GenerationSoftware,Altium Limited,CircuitStudio,1.5.2 (30)*
G04*
G04 Layer_Physical_Order=1*
G04 Layer_Color=255*
%FSLAX24Y24*%
%MOIN*%
G70*
G01*
G75*
G04:AMPARAMS|DCode=10|XSize=19.7mil|YSize=19.7mil|CornerRadius=2.5mil|HoleSize=0mil|Usage=FLASHONLY|Rotation=0.000|XOffset=0mil|YOffset=0mil|HoleType=Round|Shape=RoundedRectangle|*
%AMROUNDEDRECTD10*
21,1,0.0197,0.0148,0,0,0.0*
21,1,0.0148,0.0197,0,0,0.0*
1,1,0.0049,0.0074,-0.0074*
1,1,0.0049,-0.0074,-0.0074*
1,1,0.0049,-0.0074,0.0074*
1,1,0.0049,0.0074,0.0074*
%
%ADD10ROUNDEDRECTD10*%
G04:AMPARAMS|DCode=11|XSize=19.7mil|YSize=19.7mil|CornerRadius=2.5mil|HoleSize=0mil|Usage=FLASHONLY|Rotation=270.000|XOffset=0mil|YOffset=0mil|HoleType=Round|Shape=RoundedRectangle|*
%AMROUNDEDRECTD11*
21,1,0.0197,0.0148,0,0,270.0*
21,1,0.0148,0.0197,0,0,270.0*
1,1,0.0049,-0.0074,-0.0074*
1,1,0.0049,-0.0074,0.0074*
1,1,0.0049,0.0074,0.0074*
1,1,0.0049,0.0074,-0.0074*
%
%ADD11ROUNDEDRECTD11*%
G04:AMPARAMS|DCode=12|XSize=41.3mil|YSize=86.6mil|CornerRadius=4.1mil|HoleSize=0mil|Usage=FLASHONLY|Rotation=270.000|XOffset=0mil|YOffset=0mil|HoleType=Round|Shape=RoundedRectangle|*
%AMROUNDEDRECTD12*
21,1,0.0413,0.0783,0,0,270.0*
21,1,0.0331,0.0866,0,0,270.0*
1,1,0.0083,-0.0392,-0.0165*
1,1,0.0083,-0.0392,0.0165*
1,1,0.0083,0.0392,0.0165*
1,1,0.0083,0.0392,-0.0165*
%
%ADD12ROUNDEDRECTD12*%
G04:AMPARAMS|DCode=13|XSize=39.4mil|YSize=41.3mil|CornerRadius=3.9mil|HoleSize=0mil|Usage=FLASHONLY|Rotation=270.000|XOffset=0mil|YOffset=0mil|HoleType=Round|Shape=RoundedRectangle|*
%AMROUNDEDRECTD13*
21,1,0.0394,0.0335,0,0,270.0*
21,1,0.0315,0.0413,0,0,270.0*
1,1,0.0079,-0.0167,-0.0157*
1,1,0.0079,-0.0167,0.0157*
1,1,0.0079,0.0167,0.0157*
1,1,0.0079,0.0167,-0.0157*
%
%ADD13ROUNDEDRECTD13*%
G04:AMPARAMS|DCode=14|XSize=41.3mil|YSize=86.6mil|CornerRadius=2.1mil|HoleSize=0mil|Usage=FLASHONLY|Rotation=270.000|XOffset=0mil|YOffset=0mil|HoleType=Round|Shape=RoundedRectangle|*
%AMROUNDEDRECTD14*
21,1,0.0413,0.0825,0,0,270.0*
21,1,0.0372,0.0866,0,0,270.0*
1,1,0.0041,-0.0412,-0.0186*
1,1,0.0041,-0.0412,0.0186*
1,1,0.0041,0.0412,0.0186*
1,1,0.0041,0.0412,-0.0186*
%
%ADD14ROUNDEDRECTD14*%
G04:AMPARAMS|DCode=15|XSize=39.4mil|YSize=41.3mil|CornerRadius=2mil|HoleSize=0mil|Usage=FLASHONLY|Rotation=270.000|XOffset=0mil|YOffset=0mil|HoleType=Round|Shape=RoundedRectangle|*
%AMROUNDEDRECTD15*
21,1,0.0394,0.0374,0,0,270.0*
21,1,0.0354,0.0413,0,0,270.0*
1,1,0.0039,-0.0187,-0.0177*
1,1,0.0039,-0.0187,0.0177*
1,1,0.0039,0.0187,0.0177*
1,1,0.0039,0.0187,-0.0177*
%
%ADD15ROUNDEDRECTD15*%
G04:AMPARAMS|DCode=16|XSize=27.6mil|YSize=23.6mil|CornerRadius=3mil|HoleSize=0mil|Usage=FLASHONLY|Rotation=0.000|XOffset=0mil|YOffset=0mil|HoleType=Round|Shape=RoundedRectangle|*
%AMROUNDEDRECTD16*
21,1,0.0276,0.0177,0,0,0.0*
21,1,0.0217,0.0236,0,0,0.0*
1,1,0.0059,0.0108,-0.0089*
1,1,0.0059,-0.0108,-0.0089*
1,1,0.0059,-0.0108,0.0089*
1,1,0.0059,0.0108,0.0089*
%
%ADD16ROUNDEDRECTD16*%
G04:AMPARAMS|DCode=17|XSize=27.6mil|YSize=23.6mil|CornerRadius=3mil|HoleSize=0mil|Usage=FLASHONLY|Rotation=270.000|XOffset=0mil|YOffset=0mil|HoleType=Round|Shape=RoundedRectangle|*
%AMROUNDEDRECTD17*
21,1,0.0276,0.0177,0,0,270.0*
21,1,0.0217,0.0236,0,0,270.0*
1,1,0.0059,-0.0089,-0.0108*
1,1,0.0059,-0.0089,0.0108*
1,1,0.0059,0.0089,0.0108*
1,1,0.0059,0.0089,-0.0108*
%
%ADD17ROUNDEDRECTD17*%
G04:AMPARAMS|DCode=18|XSize=19.7mil|YSize=19.7mil|CornerRadius=4.9mil|HoleSize=0mil|Usage=FLASHONLY|Rotation=0.000|XOffset=0mil|YOffset=0mil|HoleType=Round|Shape=RoundedRectangle|*
%AMROUNDEDRECTD18*
21,1,0.0197,0.0098,0,0,0.0*
21,1,0.0098,0.0197,0,0,0.0*
1,1,0.0098,0.0049,-0.0049*
1,1,0.0098,-0.0049,-0.0049*
1,1,0.0098,-0.0049,0.0049*
1,1,0.0098,0.0049,0.0049*
%
%ADD18ROUNDEDRECTD18*%
%ADD19C,0.0197*%
%ADD20C,0.0236*%
%ADD21C,0.0394*%
%ADD22C,0.0276*%
G36*
X15551Y197D02*
X197D01*
Y15551D01*
X15551D01*
Y197D01*
D02*
G37*
%LPC*%
G36*
X3868Y6343D02*
X3770D01*
X3674Y6324D01*
X3592Y6270D01*
X3538Y6189D01*
X3519Y6093D01*
Y5994D01*
X3520Y5989D01*
Y5822D01*
X3519Y5817D01*
Y5719D01*
X3538Y5623D01*
X3592Y5541D01*
X3674Y5487D01*
X3770Y5468D01*
X3868D01*
X3894Y5473D01*
X3909Y5473D01*
X4072Y5507D01*
X4370D01*
X4462Y5526D01*
X4471Y5531D01*
X5236D01*
Y6280D01*
X4471D01*
X4462Y6286D01*
X4370Y6304D01*
X4072D01*
X3909Y6338D01*
X3894Y6338D01*
X3868Y6343D01*
D02*
G37*
G36*
X13780Y2562D02*
X13664Y2551D01*
X13552Y2517D01*
X13450Y2462D01*
X13360Y2388D01*
X13286Y2298D01*
X13231Y2196D01*
X13198Y2084D01*
X13186Y1969D01*
X13198Y1853D01*
X13231Y1741D01*
X13286Y1639D01*
X13360Y1549D01*
X13450Y1475D01*
X13552Y1420D01*
X13664Y1387D01*
X13780Y1375D01*
X13895Y1387D01*
X14007Y1420D01*
X14109Y1475D01*
X14199Y1549D01*
X14273Y1639D01*
X14328Y1741D01*
X14362Y1853D01*
X14373Y1969D01*
X14362Y2084D01*
X14328Y2196D01*
X14273Y2298D01*
X14199Y2388D01*
X14109Y2462D01*
X14007Y2517D01*
X13895Y2551D01*
X13780Y2562D01*
D02*
G37*
G36*
X9094Y2367D02*
X8760D01*
X8668Y2349D01*
X8590Y2296D01*
X8583Y2286D01*
X8503D01*
X8494Y2288D01*
X8278D01*
X8189Y2270D01*
X8169Y2257D01*
X8149Y2270D01*
X8061Y2288D01*
X7844D01*
X7836Y2286D01*
X7756D01*
X7749Y2296D01*
X7671Y2349D01*
X7579Y2367D01*
X7244D01*
X7152Y2349D01*
X7143Y2343D01*
X6378D01*
Y1594D01*
X7143D01*
X7152Y1589D01*
X7244Y1570D01*
X7579D01*
X7633Y1525D01*
Y1407D01*
X7651Y1319D01*
X7701Y1244D01*
X7776Y1194D01*
X7864Y1177D01*
X8041D01*
X8130Y1194D01*
X8169Y1221D01*
X8209Y1194D01*
X8297Y1177D01*
X8474D01*
X8563Y1194D01*
X8638Y1244D01*
X8688Y1319D01*
X8705Y1407D01*
Y1525D01*
X8760Y1570D01*
X9094D01*
X9187Y1589D01*
X9196Y1594D01*
X9961D01*
Y2343D01*
X9196D01*
X9187Y2349D01*
X9094Y2367D01*
D02*
G37*
G36*
X3642D02*
X3307D01*
X3301Y2366D01*
X2959D01*
X2953Y2367D01*
X2618D01*
X2526Y2349D01*
X2517Y2343D01*
X1752D01*
Y1594D01*
X2517D01*
X2526Y1589D01*
X2618Y1570D01*
X2953D01*
X2959Y1571D01*
X3301D01*
X3307Y1570D01*
X3642D01*
X3734Y1589D01*
X3743Y1594D01*
X4508D01*
Y2343D01*
X3743D01*
X3734Y2349D01*
X3642Y2367D01*
D02*
G37*
G36*
X2490Y6343D02*
X2392D01*
X2366Y6338D01*
X2350Y6338D01*
X2187Y6304D01*
X1890D01*
X1798Y6286D01*
X1789Y6280D01*
X1024D01*
Y5531D01*
X1789D01*
X1798Y5526D01*
X1890Y5507D01*
X2187D01*
X2350Y5473D01*
X2366Y5473D01*
X2392Y5468D01*
X2490D01*
X2586Y5487D01*
X2668Y5541D01*
X2722Y5623D01*
X2741Y5719D01*
Y5817D01*
X2740Y5822D01*
Y5989D01*
X2741Y5994D01*
Y6093D01*
X2722Y6189D01*
X2668Y6270D01*
X2586Y6324D01*
X2490Y6343D01*
D02*
G37*
G36*
X2224Y14178D02*
X1890D01*
X1798Y14160D01*
X1789Y14154D01*
X1024D01*
Y13406D01*
X1789D01*
X1798Y13400D01*
X1890Y13381D01*
X2224D01*
X2317Y13400D01*
X2395Y13452D01*
X2447Y13530D01*
X2465Y13622D01*
Y13937D01*
X2447Y14029D01*
X2395Y14107D01*
X2317Y14160D01*
X2224Y14178D01*
D02*
G37*
G36*
X4370D02*
X4035D01*
X3943Y14160D01*
X3865Y14107D01*
X3813Y14029D01*
X3795Y13937D01*
Y13622D01*
X3813Y13530D01*
X3865Y13452D01*
X3943Y13400D01*
X4035Y13381D01*
X4370D01*
X4462Y13400D01*
X4471Y13406D01*
X5236D01*
Y14154D01*
X4471D01*
X4462Y14160D01*
X4370Y14178D01*
D02*
G37*
G36*
X9326Y14276D02*
X9178D01*
X9092Y14259D01*
X9018Y14210D01*
X8970Y14137D01*
X8958Y14077D01*
X8941D01*
X8932Y14079D01*
X8784D01*
X8698Y14062D01*
X8661Y14037D01*
X8625Y14062D01*
X8538Y14079D01*
X8391D01*
X8382Y14077D01*
X8365D01*
X8353Y14137D01*
X8304Y14210D01*
X8231Y14259D01*
X8145Y14276D01*
X7997D01*
X7911Y14259D01*
X7837Y14210D01*
X7807Y14164D01*
X7736Y14178D01*
X7402D01*
X7309Y14160D01*
X7300Y14154D01*
X6535D01*
Y13406D01*
X7300D01*
X7309Y13400D01*
X7402Y13381D01*
X7736D01*
X7807Y13395D01*
X7837Y13349D01*
X7911Y13300D01*
X7997Y13283D01*
X8145D01*
X8231Y13300D01*
X8304Y13349D01*
X8353Y13422D01*
X8365Y13482D01*
X8382D01*
X8391Y13480D01*
X8538D01*
X8625Y13497D01*
X8661Y13522D01*
X8698Y13497D01*
X8784Y13480D01*
X8932D01*
X8941Y13482D01*
X8958D01*
X8970Y13422D01*
X9018Y13349D01*
X9092Y13300D01*
X9178Y13283D01*
X9326D01*
X9412Y13300D01*
X9485Y13349D01*
X9516Y13395D01*
X9587Y13381D01*
X9921D01*
X10013Y13400D01*
X10022Y13406D01*
X10787D01*
Y14154D01*
X10022D01*
X10013Y14160D01*
X9921Y14178D01*
X9587D01*
X9516Y14164D01*
X9485Y14210D01*
X9412Y14259D01*
X9326Y14276D01*
D02*
G37*
G36*
X10020Y6304D02*
X9685D01*
X9593Y6286D01*
X9515Y6233D01*
X9510Y6226D01*
X9508Y6227D01*
X9419Y6245D01*
X9242D01*
X9154Y6227D01*
X9148Y6223D01*
X8995Y6223D01*
X8986Y6225D01*
X8770D01*
X8681Y6207D01*
X8661Y6194D01*
X8641Y6207D01*
X8553Y6225D01*
X8337D01*
X8328Y6223D01*
X8175Y6223D01*
X8169Y6227D01*
X8081Y6245D01*
X7904D01*
X7815Y6227D01*
X7813Y6226D01*
X7808Y6233D01*
X7730Y6286D01*
X7638Y6304D01*
X7303D01*
X7211Y6286D01*
X7202Y6280D01*
X6437D01*
Y5531D01*
X7202D01*
X7211Y5526D01*
X7303Y5507D01*
X7638D01*
X7730Y5526D01*
X7808Y5578D01*
X7813Y5585D01*
X7815Y5584D01*
X7904Y5566D01*
X8081D01*
X8169Y5584D01*
X8175Y5588D01*
X8328Y5588D01*
X8337Y5586D01*
X8553D01*
X8641Y5604D01*
X8661Y5617D01*
X8681Y5604D01*
X8770Y5586D01*
X8986D01*
X8995Y5588D01*
X9148Y5588D01*
X9154Y5584D01*
X9242Y5566D01*
X9419D01*
X9508Y5584D01*
X9510Y5585D01*
X9515Y5578D01*
X9593Y5526D01*
X9685Y5507D01*
X10020D01*
X10112Y5526D01*
X10121Y5531D01*
X10886D01*
Y6280D01*
X10121D01*
X10112Y6286D01*
X10020Y6304D01*
D02*
G37*
G36*
X10433Y10241D02*
X10098D01*
X10006Y10223D01*
X9928Y10170D01*
X9921Y10160D01*
X9841D01*
X9833Y10162D01*
X9616D01*
X9528Y10144D01*
X9508Y10131D01*
X9488Y10144D01*
X9400Y10162D01*
X9183D01*
X9174Y10160D01*
X9021Y10160D01*
X9015Y10164D01*
X8927Y10182D01*
X8750D01*
X8662Y10164D01*
X8656Y10160D01*
X8503Y10160D01*
X8494Y10162D01*
X8278D01*
X8189Y10144D01*
X8169Y10131D01*
X8149Y10144D01*
X8061Y10162D01*
X7844D01*
X7836Y10160D01*
X7756D01*
X7749Y10170D01*
X7671Y10223D01*
X7579Y10241D01*
X7244D01*
X7152Y10223D01*
X7143Y10217D01*
X6378D01*
Y9469D01*
X7143D01*
X7152Y9463D01*
X7244Y9444D01*
X7579D01*
X7671Y9463D01*
X7749Y9515D01*
X7756Y9525D01*
X7836D01*
X7844Y9523D01*
X8061D01*
X8149Y9541D01*
X8169Y9554D01*
X8189Y9541D01*
X8278Y9523D01*
X8494D01*
X8503Y9525D01*
X8656Y9525D01*
X8662Y9521D01*
X8750Y9503D01*
X8927D01*
X9015Y9521D01*
X9021Y9525D01*
X9174Y9525D01*
X9183Y9523D01*
X9400D01*
X9488Y9541D01*
X9508Y9554D01*
X9528Y9541D01*
X9616Y9523D01*
X9833D01*
X9841Y9525D01*
X9921D01*
X9928Y9515D01*
X10006Y9463D01*
X10098Y9444D01*
X10433D01*
X10525Y9463D01*
X10534Y9469D01*
X11299D01*
Y10217D01*
X10534D01*
X10525Y10223D01*
X10433Y10241D01*
D02*
G37*
G36*
X13780Y14373D02*
X13664Y14362D01*
X13552Y14328D01*
X13450Y14273D01*
X13360Y14199D01*
X13286Y14109D01*
X13231Y14007D01*
X13198Y13895D01*
X13186Y13780D01*
X13198Y13664D01*
X13231Y13552D01*
X13286Y13450D01*
X13360Y13360D01*
X13450Y13286D01*
X13552Y13231D01*
X13664Y13198D01*
X13780Y13186D01*
X13895Y13198D01*
X14007Y13231D01*
X14109Y13286D01*
X14199Y13360D01*
X14273Y13450D01*
X14328Y13552D01*
X14362Y13664D01*
X14373Y13780D01*
X14362Y13895D01*
X14328Y14007D01*
X14273Y14109D01*
X14199Y14199D01*
X14109Y14273D01*
X14007Y14328D01*
X13895Y14362D01*
X13780Y14373D01*
D02*
G37*
%LPD*%
G36*
X4055Y6102D02*
Y5709D01*
X3868Y5669D01*
X3770D01*
X3720Y5719D01*
Y6093D01*
X3770Y6142D01*
X3868D01*
X4055Y6102D01*
D02*
G37*
G36*
X2539Y6093D02*
Y5719D01*
X2490Y5669D01*
X2392D01*
X2205Y5709D01*
Y6102D01*
X2392Y6142D01*
X2490D01*
X2539Y6093D01*
D02*
G37*
D10*
X8071Y13189D02*
D03*
Y13583D02*
D03*
X9252Y14370D02*
D03*
Y13976D02*
D03*
X9252Y13189D02*
D03*
Y13583D02*
D03*
X8071Y14370D02*
D03*
Y13976D02*
D03*
D11*
X8465Y13780D02*
D03*
X8858D02*
D03*
D12*
X10354Y13199D02*
D03*
Y14360D02*
D03*
X6969D02*
D03*
Y13199D02*
D03*
X4803D02*
D03*
Y14360D02*
D03*
X1457D02*
D03*
Y13199D02*
D03*
X10866Y9262D02*
D03*
Y10423D02*
D03*
X6811D02*
D03*
Y9262D02*
D03*
X10453Y5325D02*
D03*
Y6486D02*
D03*
X6870D02*
D03*
Y5325D02*
D03*
X4803D02*
D03*
Y6486D02*
D03*
X1457D02*
D03*
Y5325D02*
D03*
X9528Y1388D02*
D03*
Y2549D02*
D03*
X6811D02*
D03*
Y1388D02*
D03*
X4075D02*
D03*
Y2549D02*
D03*
X2185D02*
D03*
Y1388D02*
D03*
D13*
X9754Y13780D02*
D03*
X7569D02*
D03*
X4203D02*
D03*
X2057D02*
D03*
X10266Y9843D02*
D03*
X7411D02*
D03*
X9852Y5906D02*
D03*
X7470D02*
D03*
X4203D02*
D03*
X2057D02*
D03*
X8927Y1969D02*
D03*
X7411D02*
D03*
X3474D02*
D03*
X2785D02*
D03*
D14*
X4803Y9272D02*
D03*
Y10413D02*
D03*
X1457D02*
D03*
Y9272D02*
D03*
D15*
X4193Y9843D02*
D03*
X2067D02*
D03*
D16*
X9291D02*
D03*
X9724D02*
D03*
X7953D02*
D03*
X8386D02*
D03*
X8878Y5906D02*
D03*
X8445D02*
D03*
X8386Y1969D02*
D03*
X7953D02*
D03*
D17*
X8839Y9843D02*
D03*
Y9409D02*
D03*
X9331Y5906D02*
D03*
Y5472D02*
D03*
X7992Y5906D02*
D03*
Y5472D02*
D03*
X8386Y1516D02*
D03*
Y1083D02*
D03*
X7953Y1516D02*
D03*
Y1083D02*
D03*
D18*
X3819Y6043D02*
D03*
Y6437D02*
D03*
X2441Y5768D02*
D03*
Y5374D02*
D03*
X3819Y5768D02*
D03*
Y5374D02*
D03*
X2441Y6043D02*
D03*
Y6437D02*
D03*
D19*
X9252Y13780D02*
X9754D01*
X8858D02*
X9252D01*
X9252Y13976D01*
X9252Y13583D02*
X9252Y13780D01*
X8071D02*
X8465D01*
X7569D02*
X8071D01*
X8071Y13976D01*
X8071Y13583D02*
X8071Y13780D01*
D20*
X9724Y9843D02*
X10266D01*
X8839Y9843D02*
X9291Y9843D01*
X8386D02*
X8839Y9843D01*
X7411Y9843D02*
X7953D01*
X9331Y5906D02*
X9852Y5906D01*
X8878D02*
X9331Y5906D01*
X7470Y5906D02*
X7992Y5906D01*
X8445Y5906D01*
X7953Y1516D02*
X7953Y1969D01*
X8386Y1516D02*
Y1969D01*
X8927D01*
X7411D02*
X7953D01*
D21*
X2785D02*
X3474D01*
D22*
X9567Y14409D02*
D03*
X7963Y728D02*
D03*
X8396D02*
D03*
X9341Y5118D02*
D03*
X8996Y5453D02*
D03*
X8327Y5443D02*
D03*
X7992Y5118D02*
D03*
X8504Y9380D02*
D03*
X9173Y9390D02*
D03*
X8071Y12874D02*
D03*
X8386Y13150D02*
D03*
X8937D02*
D03*
X9252Y12874D02*
D03*
Y14685D02*
D03*
X8937Y14409D02*
D03*
X8081Y14685D02*
D03*
X8386Y14409D02*
D03*
X3140Y5207D02*
D03*
Y6604D02*
D03*
X3150Y5906D02*
D03*
Y2579D02*
D03*
X3140Y1181D02*
D03*
X8898Y2756D02*
D03*
X8858Y1191D02*
D03*
X7756Y14409D02*
D03*
X9567Y13150D02*
D03*
X9843Y5118D02*
D03*
X7480D02*
D03*
X7756Y13150D02*
D03*
X9843Y9055D02*
D03*
X9055D02*
D03*
X8268D02*
D03*
X7480D02*
D03*
Y2756D02*
D03*
Y1181D02*
D03*
X15354Y1969D02*
D03*
X14567D02*
D03*
X12992D02*
D03*
X12205D02*
D03*
X11417D02*
D03*
X10630D02*
D03*
X8268Y2756D02*
D03*
X10630D02*
D03*
X11417D02*
D03*
X12205D02*
D03*
X12992D02*
D03*
X13780D02*
D03*
X14567D02*
D03*
X15354D02*
D03*
Y3543D02*
D03*
X14567D02*
D03*
X12992D02*
D03*
X13780D02*
D03*
X12205D02*
D03*
X11417D02*
D03*
X9843D02*
D03*
X10630D02*
D03*
X9055D02*
D03*
X8268D02*
D03*
X7480D02*
D03*
X6693D02*
D03*
Y4331D02*
D03*
X7480D02*
D03*
X8268D02*
D03*
X9055D02*
D03*
X10630D02*
D03*
X9843D02*
D03*
X11417D02*
D03*
X12205D02*
D03*
X12992D02*
D03*
X13780D02*
D03*
X14567D02*
D03*
X15354D02*
D03*
Y5118D02*
D03*
X14567D02*
D03*
X13780D02*
D03*
X12992D02*
D03*
X12205D02*
D03*
X11417D02*
D03*
Y5906D02*
D03*
X12205D02*
D03*
X12992D02*
D03*
X14567D02*
D03*
X13780D02*
D03*
X15354D02*
D03*
Y6693D02*
D03*
X14567D02*
D03*
X13780D02*
D03*
X12992D02*
D03*
X12205D02*
D03*
X11417D02*
D03*
X9843D02*
D03*
X7480D02*
D03*
X9055D02*
D03*
X8268D02*
D03*
X6693Y7480D02*
D03*
X7480D02*
D03*
X8268D02*
D03*
X9055D02*
D03*
X9843D02*
D03*
X10630D02*
D03*
X11417D02*
D03*
X12992D02*
D03*
X12205D02*
D03*
X13780D02*
D03*
X14567D02*
D03*
X15354D02*
D03*
X14567Y8268D02*
D03*
X12992D02*
D03*
X13780D02*
D03*
X12205D02*
D03*
X10630D02*
D03*
X11417D02*
D03*
X9843D02*
D03*
X8268D02*
D03*
X9055D02*
D03*
X7480D02*
D03*
X6693D02*
D03*
X12205Y9055D02*
D03*
X12992D02*
D03*
X14567D02*
D03*
X13780D02*
D03*
X15354D02*
D03*
Y8268D02*
D03*
X12205Y9843D02*
D03*
X13780D02*
D03*
X12992D02*
D03*
X14567D02*
D03*
X15354D02*
D03*
Y10630D02*
D03*
X14567D02*
D03*
X13780D02*
D03*
X12992D02*
D03*
X12205D02*
D03*
X7480D02*
D03*
X9843D02*
D03*
X9055D02*
D03*
X8268D02*
D03*
X6693Y11417D02*
D03*
X7480D02*
D03*
X8268D02*
D03*
X9055D02*
D03*
X9843D02*
D03*
X10630D02*
D03*
X12205D02*
D03*
X11417D02*
D03*
X12992D02*
D03*
X13780D02*
D03*
X14567D02*
D03*
X15354D02*
D03*
Y12205D02*
D03*
X14567D02*
D03*
X13780D02*
D03*
X12992D02*
D03*
X11417D02*
D03*
X12205D02*
D03*
X10630D02*
D03*
X9843D02*
D03*
X9055D02*
D03*
X8268D02*
D03*
X7480D02*
D03*
X6693D02*
D03*
X13780Y12992D02*
D03*
X14567D02*
D03*
X15354D02*
D03*
X14567Y13780D02*
D03*
X15354D02*
D03*
Y14567D02*
D03*
X14567D02*
D03*
X13780D02*
D03*
X12992D02*
D03*
Y13780D02*
D03*
Y12992D02*
D03*
X12205D02*
D03*
Y13780D02*
D03*
Y14567D02*
D03*
X11417Y12992D02*
D03*
Y13780D02*
D03*
Y14567D02*
D03*
X6693Y15354D02*
D03*
X7480D02*
D03*
X8268D02*
D03*
X9055D02*
D03*
X9843D02*
D03*
X10630D02*
D03*
X11417D02*
D03*
X12992D02*
D03*
X12205D02*
D03*
X13780D02*
D03*
X14567D02*
D03*
X15354D02*
D03*
X3543Y14567D02*
D03*
X2756D02*
D03*
Y13780D02*
D03*
X3543D02*
D03*
Y12992D02*
D03*
X2756D02*
D03*
X394D02*
D03*
Y13780D02*
D03*
Y14567D02*
D03*
Y15354D02*
D03*
X1181D02*
D03*
X1969D02*
D03*
X2756D02*
D03*
X3543D02*
D03*
X4331D02*
D03*
X5118D02*
D03*
X5906D02*
D03*
Y14567D02*
D03*
Y13780D02*
D03*
Y12992D02*
D03*
Y12205D02*
D03*
X5118D02*
D03*
X4331D02*
D03*
X3543D02*
D03*
X2756D02*
D03*
X1969D02*
D03*
X1181D02*
D03*
X394D02*
D03*
X3543Y10630D02*
D03*
X2756D02*
D03*
Y9843D02*
D03*
X3543D02*
D03*
Y9055D02*
D03*
X2756D02*
D03*
X394D02*
D03*
Y9843D02*
D03*
Y10630D02*
D03*
Y11417D02*
D03*
X1181D02*
D03*
X1969D02*
D03*
X2756D02*
D03*
X3543D02*
D03*
X4331D02*
D03*
X5118D02*
D03*
X5906D02*
D03*
Y10630D02*
D03*
Y9843D02*
D03*
Y9055D02*
D03*
Y8268D02*
D03*
X5118D02*
D03*
X4331D02*
D03*
X3543D02*
D03*
X2756D02*
D03*
X1969D02*
D03*
X1181D02*
D03*
X394D02*
D03*
X5906Y6693D02*
D03*
Y5906D02*
D03*
Y7480D02*
D03*
X5118D02*
D03*
X3543D02*
D03*
X4331D02*
D03*
X2756D02*
D03*
X1969D02*
D03*
X1181D02*
D03*
X394D02*
D03*
Y6693D02*
D03*
Y5906D02*
D03*
Y5118D02*
D03*
Y4331D02*
D03*
X1181D02*
D03*
X1969D02*
D03*
X2756D02*
D03*
X3543D02*
D03*
X4331D02*
D03*
X5118D02*
D03*
X5906D02*
D03*
Y5118D02*
D03*
Y3543D02*
D03*
Y2756D02*
D03*
Y1969D02*
D03*
X5118D02*
D03*
Y2756D02*
D03*
Y3543D02*
D03*
X4331D02*
D03*
X3543D02*
D03*
X2756D02*
D03*
X1969D02*
D03*
X1181D02*
D03*
X394D02*
D03*
Y2756D02*
D03*
X1181D02*
D03*
Y1969D02*
D03*
X394D02*
D03*
Y1181D02*
D03*
X1181D02*
D03*
X5118D02*
D03*
X5906D02*
D03*
X10630D02*
D03*
X11417D02*
D03*
X12205D02*
D03*
X12992D02*
D03*
X13780D02*
D03*
X14567D02*
D03*
X15354D02*
D03*
Y394D02*
D03*
X14567D02*
D03*
X13780D02*
D03*
X12992D02*
D03*
X12205D02*
D03*
X11417D02*
D03*
X10630D02*
D03*
X9843D02*
D03*
X9055D02*
D03*
X8268D02*
D03*
X7480D02*
D03*
X6693D02*
D03*
X5906D02*
D03*
X5118D02*
D03*
X4331D02*
D03*
X3543D02*
D03*
X2756D02*
D03*
X1969D02*
D03*
X1181D02*
D03*
X394D02*
D03*
M02*
