M48
;Layer_Color=9474304
;FILE_FORMAT=2:4
INCH
;TYPE=PLATED
T1F00S00C0.0118
%
T01
X000394Y000394
Y001181
Y001969
Y002756
Y003543
Y004331
Y005118
Y005906
Y006693
Y007480
X001181
X001969
X002756
X003543
X004331
X005118
X005906
Y006693
Y005906
Y005118
Y004331
X006693
X007480
Y005118
Y003543
Y002756
X006693Y003543
X005906
Y002756
Y001969
Y001181
X005118
Y001969
Y002756
Y003543
X004331
Y004331
X005118
X003543
X002756
X001969
X001181
Y003543
X001969
X002756
X003543
X003150Y002579
X003140Y001181
X002756Y000394
X003543
X004331
X005118
X005906
X006693
X007480
Y001181
Y006693
Y007480
X006693
X003140Y006604
X003150Y005906
X003140Y005207
X001181Y002756
Y001969
Y001181
Y000394
X001969
X008268
X008396Y000728
X007963
X008858Y001191
X009055Y000394
X009843
X010630
Y001181
Y001969
X011417
Y001181
X012205
Y001969
X012992
Y001181
X013780
X014567
Y001969
X015354
Y001181
Y000394
X014567
X013780
X012992
X012205
X011417
Y002756
Y003543
X012205
Y002756
X012992
Y003543
X013780
Y002756
X014567
Y003543
X015354
Y002756
Y004331
Y005118
X014567
Y004331
X013780
Y005118
X012992
Y004331
X012205
Y005118
X011417
Y004331
X010630
X009843
Y005118
X009341
X008996Y005453
X008327Y005443
X007992Y005118
X008268Y004331
X009055
Y003543
X008268
Y002756
X008898
X010630
Y003543
X009843
Y006693
Y007480
X010630
X011417
Y006693
Y005906
X012205
X012992
X013780
X014567
X015354
Y006693
Y007480
X014567
Y006693
X013780
Y007480
X012992
Y006693
X012205
Y007480
X009055
Y006693
X008268
Y007480
Y008268
Y009055
X008504Y009380
X009173Y009390
X009055Y009055
Y008268
X009843
Y009055
X010630Y008268
X011417
X012205
X012992
Y009055
X012205
Y009843
X012992
Y010630
X012205
Y011417
X012992
X013780
X014567
Y010630
Y009843
X013780
Y010630
Y009055
Y008268
X014567
Y009055
X015354
Y008268
Y009843
Y010630
Y011417
Y012205
Y012992
X014567
Y012205
X013780
Y012992
X012992
Y012205
X012205
Y012992
Y013780
X012992
Y014567
X012205
X011417
Y013780
Y012992
Y012205
Y011417
X010630
X009843
Y010630
X009055
X008268
Y011417
X009055
Y012205
X008268
X008071Y012874
X007756Y013150
X008386
X008937
X009252Y012874
X009567Y013150
X009843Y012205
X010630
Y015354
X009843
X009055
X008268
X008081Y014685
X008386Y014409
X008937
X009252Y014685
X009567Y014409
X007756
X011417Y015354
X012205
X012992
X013780
X014567
Y014567
Y013780
X015354
Y014567
Y015354
X013780Y014567
X007480Y015354
X006693
X005906
X005118
X004331
X003543
X002756
Y014567
X003543
Y013780
X002756
Y012992
X003543
Y012205
X002756
X001969
X001181
X000394
Y012992
Y013780
Y014567
Y015354
X001181
X001969
Y011417
X001181
X000394
Y010630
Y009843
Y009055
Y008268
X001181
X001969
X002756
Y009055
X003543
Y008268
X004331
X005118
X005906
Y009055
Y009843
Y010630
Y011417
X006693
X007480
Y010630
Y009055
Y008268
X006693
Y012205
X007480
X005906
Y012992
Y013780
Y014567
X005118Y012205
X004331
Y011417
X005118
X003543
X002756
Y010630
X003543
Y009843
X002756
M30
