G04*
G04 #@! TF.GenerationSoftware,Altium Limited,CircuitStudio,1.5.2 (30)*
G04*
G04 Layer_Color=8388736*
%FSLAX24Y24*%
%MOIN*%
G70*
G01*
G75*
G04:AMPARAMS|DCode=31|XSize=27.6mil|YSize=27.6mil|CornerRadius=6.4mil|HoleSize=0mil|Usage=FLASHONLY|Rotation=0.000|XOffset=0mil|YOffset=0mil|HoleType=Round|Shape=RoundedRectangle|*
%AMROUNDEDRECTD31*
21,1,0.0276,0.0148,0,0,0.0*
21,1,0.0148,0.0276,0,0,0.0*
1,1,0.0128,0.0074,-0.0074*
1,1,0.0128,-0.0074,-0.0074*
1,1,0.0128,-0.0074,0.0074*
1,1,0.0128,0.0074,0.0074*
%
%ADD31ROUNDEDRECTD31*%
G04:AMPARAMS|DCode=32|XSize=27.6mil|YSize=27.6mil|CornerRadius=6.4mil|HoleSize=0mil|Usage=FLASHONLY|Rotation=270.000|XOffset=0mil|YOffset=0mil|HoleType=Round|Shape=RoundedRectangle|*
%AMROUNDEDRECTD32*
21,1,0.0276,0.0148,0,0,270.0*
21,1,0.0148,0.0276,0,0,270.0*
1,1,0.0128,-0.0074,-0.0074*
1,1,0.0128,-0.0074,0.0074*
1,1,0.0128,0.0074,0.0074*
1,1,0.0128,0.0074,-0.0074*
%
%ADD32ROUNDEDRECTD32*%
G04:AMPARAMS|DCode=33|XSize=49.2mil|YSize=94.5mil|CornerRadius=8.1mil|HoleSize=0mil|Usage=FLASHONLY|Rotation=270.000|XOffset=0mil|YOffset=0mil|HoleType=Round|Shape=RoundedRectangle|*
%AMROUNDEDRECTD33*
21,1,0.0492,0.0783,0,0,270.0*
21,1,0.0331,0.0945,0,0,270.0*
1,1,0.0161,-0.0392,-0.0165*
1,1,0.0161,-0.0392,0.0165*
1,1,0.0161,0.0392,0.0165*
1,1,0.0161,0.0392,-0.0165*
%
%ADD33ROUNDEDRECTD33*%
G04:AMPARAMS|DCode=34|XSize=47.2mil|YSize=49.2mil|CornerRadius=7.9mil|HoleSize=0mil|Usage=FLASHONLY|Rotation=270.000|XOffset=0mil|YOffset=0mil|HoleType=Round|Shape=RoundedRectangle|*
%AMROUNDEDRECTD34*
21,1,0.0472,0.0335,0,0,270.0*
21,1,0.0315,0.0492,0,0,270.0*
1,1,0.0157,-0.0167,-0.0157*
1,1,0.0157,-0.0167,0.0157*
1,1,0.0157,0.0167,0.0157*
1,1,0.0157,0.0167,-0.0157*
%
%ADD34ROUNDEDRECTD34*%
G04:AMPARAMS|DCode=35|XSize=49.2mil|YSize=94.5mil|CornerRadius=6mil|HoleSize=0mil|Usage=FLASHONLY|Rotation=270.000|XOffset=0mil|YOffset=0mil|HoleType=Round|Shape=RoundedRectangle|*
%AMROUNDEDRECTD35*
21,1,0.0492,0.0825,0,0,270.0*
21,1,0.0372,0.0945,0,0,270.0*
1,1,0.0120,-0.0412,-0.0186*
1,1,0.0120,-0.0412,0.0186*
1,1,0.0120,0.0412,0.0186*
1,1,0.0120,0.0412,-0.0186*
%
%ADD35ROUNDEDRECTD35*%
G04:AMPARAMS|DCode=36|XSize=47.2mil|YSize=49.2mil|CornerRadius=5.9mil|HoleSize=0mil|Usage=FLASHONLY|Rotation=270.000|XOffset=0mil|YOffset=0mil|HoleType=Round|Shape=RoundedRectangle|*
%AMROUNDEDRECTD36*
21,1,0.0472,0.0374,0,0,270.0*
21,1,0.0354,0.0492,0,0,270.0*
1,1,0.0118,-0.0187,-0.0177*
1,1,0.0118,-0.0187,0.0177*
1,1,0.0118,0.0187,0.0177*
1,1,0.0118,0.0187,-0.0177*
%
%ADD36ROUNDEDRECTD36*%
G04:AMPARAMS|DCode=37|XSize=35.4mil|YSize=31.5mil|CornerRadius=6.9mil|HoleSize=0mil|Usage=FLASHONLY|Rotation=0.000|XOffset=0mil|YOffset=0mil|HoleType=Round|Shape=RoundedRectangle|*
%AMROUNDEDRECTD37*
21,1,0.0354,0.0177,0,0,0.0*
21,1,0.0217,0.0315,0,0,0.0*
1,1,0.0138,0.0108,-0.0089*
1,1,0.0138,-0.0108,-0.0089*
1,1,0.0138,-0.0108,0.0089*
1,1,0.0138,0.0108,0.0089*
%
%ADD37ROUNDEDRECTD37*%
G04:AMPARAMS|DCode=38|XSize=35.4mil|YSize=31.5mil|CornerRadius=6.9mil|HoleSize=0mil|Usage=FLASHONLY|Rotation=270.000|XOffset=0mil|YOffset=0mil|HoleType=Round|Shape=RoundedRectangle|*
%AMROUNDEDRECTD38*
21,1,0.0354,0.0177,0,0,270.0*
21,1,0.0217,0.0315,0,0,270.0*
1,1,0.0138,-0.0089,-0.0108*
1,1,0.0138,-0.0089,0.0108*
1,1,0.0138,0.0089,0.0108*
1,1,0.0138,0.0089,-0.0108*
%
%ADD38ROUNDEDRECTD38*%
G04:AMPARAMS|DCode=39|XSize=27.6mil|YSize=27.6mil|CornerRadius=8.9mil|HoleSize=0mil|Usage=FLASHONLY|Rotation=0.000|XOffset=0mil|YOffset=0mil|HoleType=Round|Shape=RoundedRectangle|*
%AMROUNDEDRECTD39*
21,1,0.0276,0.0098,0,0,0.0*
21,1,0.0098,0.0276,0,0,0.0*
1,1,0.0177,0.0049,-0.0049*
1,1,0.0177,-0.0049,-0.0049*
1,1,0.0177,-0.0049,0.0049*
1,1,0.0177,0.0049,0.0049*
%
%ADD39ROUNDEDRECTD39*%
%ADD40C,0.0079*%
D31*
X8071Y13189D02*
D03*
Y13583D02*
D03*
X9252Y14370D02*
D03*
Y13976D02*
D03*
X9252Y13189D02*
D03*
Y13583D02*
D03*
X8071Y14370D02*
D03*
Y13976D02*
D03*
D32*
X8465Y13780D02*
D03*
X8858D02*
D03*
D33*
X10354Y13199D02*
D03*
Y14360D02*
D03*
X6969D02*
D03*
Y13199D02*
D03*
X4803D02*
D03*
Y14360D02*
D03*
X1457D02*
D03*
Y13199D02*
D03*
X10866Y9262D02*
D03*
Y10423D02*
D03*
X6811D02*
D03*
Y9262D02*
D03*
X10453Y5325D02*
D03*
Y6486D02*
D03*
X6870D02*
D03*
Y5325D02*
D03*
X4803D02*
D03*
Y6486D02*
D03*
X1457D02*
D03*
Y5325D02*
D03*
X9528Y1388D02*
D03*
Y2549D02*
D03*
X6811D02*
D03*
Y1388D02*
D03*
X4075D02*
D03*
Y2549D02*
D03*
X2185D02*
D03*
Y1388D02*
D03*
D34*
X9754Y13780D02*
D03*
X7569D02*
D03*
X4203D02*
D03*
X2057D02*
D03*
X10266Y9843D02*
D03*
X7411D02*
D03*
X9852Y5906D02*
D03*
X7470D02*
D03*
X4203D02*
D03*
X2057D02*
D03*
X8927Y1969D02*
D03*
X7411D02*
D03*
X3474D02*
D03*
X2785D02*
D03*
D35*
X4803Y9272D02*
D03*
Y10413D02*
D03*
X1457D02*
D03*
Y9272D02*
D03*
D36*
X4193Y9843D02*
D03*
X2067D02*
D03*
D37*
X9291D02*
D03*
X9724D02*
D03*
X7953D02*
D03*
X8386D02*
D03*
X8878Y5906D02*
D03*
X8445D02*
D03*
X8386Y1969D02*
D03*
X7953D02*
D03*
D38*
X8839Y9843D02*
D03*
Y9409D02*
D03*
X9331Y5906D02*
D03*
Y5472D02*
D03*
X7992Y5906D02*
D03*
Y5472D02*
D03*
X8386Y1516D02*
D03*
Y1083D02*
D03*
X7953Y1516D02*
D03*
Y1083D02*
D03*
D39*
X3819Y6043D02*
D03*
Y6437D02*
D03*
X2441Y5768D02*
D03*
Y5374D02*
D03*
X3819Y5768D02*
D03*
Y5374D02*
D03*
X2441Y6043D02*
D03*
Y6437D02*
D03*
D40*
X13780Y1969D02*
D03*
Y13780D02*
D03*
M02*
