G04*
G04 #@! TF.GenerationSoftware,Altium Limited,CircuitStudio,1.5.2 (30)*
G04*
G04 Layer_Physical_Order=2*
G04 Layer_Color=16711680*
%FSLAX24Y24*%
%MOIN*%
G70*
G01*
G75*
%ADD22C,0.0276*%
G36*
X15551Y197D02*
X197D01*
Y15551D01*
X15551D01*
Y197D01*
D02*
G37*
%LPC*%
G36*
X13780Y2562D02*
X13664Y2551D01*
X13552Y2517D01*
X13450Y2462D01*
X13360Y2388D01*
X13286Y2298D01*
X13231Y2196D01*
X13198Y2084D01*
X13186Y1969D01*
X13198Y1853D01*
X13231Y1741D01*
X13286Y1639D01*
X13360Y1549D01*
X13450Y1475D01*
X13552Y1420D01*
X13664Y1387D01*
X13780Y1375D01*
X13895Y1387D01*
X14007Y1420D01*
X14109Y1475D01*
X14199Y1549D01*
X14273Y1639D01*
X14328Y1741D01*
X14362Y1853D01*
X14373Y1969D01*
X14362Y2084D01*
X14328Y2196D01*
X14273Y2298D01*
X14199Y2388D01*
X14109Y2462D01*
X14007Y2517D01*
X13895Y2551D01*
X13780Y2562D01*
D02*
G37*
G36*
Y14373D02*
X13664Y14362D01*
X13552Y14328D01*
X13450Y14273D01*
X13360Y14199D01*
X13286Y14109D01*
X13231Y14007D01*
X13198Y13895D01*
X13186Y13780D01*
X13198Y13664D01*
X13231Y13552D01*
X13286Y13450D01*
X13360Y13360D01*
X13450Y13286D01*
X13552Y13231D01*
X13664Y13198D01*
X13780Y13186D01*
X13895Y13198D01*
X14007Y13231D01*
X14109Y13286D01*
X14199Y13360D01*
X14273Y13450D01*
X14328Y13552D01*
X14362Y13664D01*
X14373Y13780D01*
X14362Y13895D01*
X14328Y14007D01*
X14273Y14109D01*
X14199Y14199D01*
X14109Y14273D01*
X14007Y14328D01*
X13895Y14362D01*
X13780Y14373D01*
D02*
G37*
%LPD*%
D22*
X9567Y14409D02*
D03*
X7963Y728D02*
D03*
X8396D02*
D03*
X9341Y5118D02*
D03*
X8996Y5453D02*
D03*
X8327Y5443D02*
D03*
X7992Y5118D02*
D03*
X8504Y9380D02*
D03*
X9173Y9390D02*
D03*
X8071Y12874D02*
D03*
X8386Y13150D02*
D03*
X8937D02*
D03*
X9252Y12874D02*
D03*
Y14685D02*
D03*
X8937Y14409D02*
D03*
X8081Y14685D02*
D03*
X8386Y14409D02*
D03*
X3140Y5207D02*
D03*
Y6604D02*
D03*
X3150Y5906D02*
D03*
Y2579D02*
D03*
X3140Y1181D02*
D03*
X8898Y2756D02*
D03*
X8858Y1191D02*
D03*
X7756Y14409D02*
D03*
X9567Y13150D02*
D03*
X9843Y5118D02*
D03*
X7480D02*
D03*
X7756Y13150D02*
D03*
X9843Y9055D02*
D03*
X9055D02*
D03*
X8268D02*
D03*
X7480D02*
D03*
Y2756D02*
D03*
Y1181D02*
D03*
X15354Y1969D02*
D03*
X14567D02*
D03*
X12992D02*
D03*
X12205D02*
D03*
X11417D02*
D03*
X10630D02*
D03*
X8268Y2756D02*
D03*
X10630D02*
D03*
X11417D02*
D03*
X12205D02*
D03*
X12992D02*
D03*
X13780D02*
D03*
X14567D02*
D03*
X15354D02*
D03*
Y3543D02*
D03*
X14567D02*
D03*
X12992D02*
D03*
X13780D02*
D03*
X12205D02*
D03*
X11417D02*
D03*
X9843D02*
D03*
X10630D02*
D03*
X9055D02*
D03*
X8268D02*
D03*
X7480D02*
D03*
X6693D02*
D03*
Y4331D02*
D03*
X7480D02*
D03*
X8268D02*
D03*
X9055D02*
D03*
X10630D02*
D03*
X9843D02*
D03*
X11417D02*
D03*
X12205D02*
D03*
X12992D02*
D03*
X13780D02*
D03*
X14567D02*
D03*
X15354D02*
D03*
Y5118D02*
D03*
X14567D02*
D03*
X13780D02*
D03*
X12992D02*
D03*
X12205D02*
D03*
X11417D02*
D03*
Y5906D02*
D03*
X12205D02*
D03*
X12992D02*
D03*
X14567D02*
D03*
X13780D02*
D03*
X15354D02*
D03*
Y6693D02*
D03*
X14567D02*
D03*
X13780D02*
D03*
X12992D02*
D03*
X12205D02*
D03*
X11417D02*
D03*
X9843D02*
D03*
X7480D02*
D03*
X9055D02*
D03*
X8268D02*
D03*
X6693Y7480D02*
D03*
X7480D02*
D03*
X8268D02*
D03*
X9055D02*
D03*
X9843D02*
D03*
X10630D02*
D03*
X11417D02*
D03*
X12992D02*
D03*
X12205D02*
D03*
X13780D02*
D03*
X14567D02*
D03*
X15354D02*
D03*
X14567Y8268D02*
D03*
X12992D02*
D03*
X13780D02*
D03*
X12205D02*
D03*
X10630D02*
D03*
X11417D02*
D03*
X9843D02*
D03*
X8268D02*
D03*
X9055D02*
D03*
X7480D02*
D03*
X6693D02*
D03*
X12205Y9055D02*
D03*
X12992D02*
D03*
X14567D02*
D03*
X13780D02*
D03*
X15354D02*
D03*
Y8268D02*
D03*
X12205Y9843D02*
D03*
X13780D02*
D03*
X12992D02*
D03*
X14567D02*
D03*
X15354D02*
D03*
Y10630D02*
D03*
X14567D02*
D03*
X13780D02*
D03*
X12992D02*
D03*
X12205D02*
D03*
X7480D02*
D03*
X9843D02*
D03*
X9055D02*
D03*
X8268D02*
D03*
X6693Y11417D02*
D03*
X7480D02*
D03*
X8268D02*
D03*
X9055D02*
D03*
X9843D02*
D03*
X10630D02*
D03*
X12205D02*
D03*
X11417D02*
D03*
X12992D02*
D03*
X13780D02*
D03*
X14567D02*
D03*
X15354D02*
D03*
Y12205D02*
D03*
X14567D02*
D03*
X13780D02*
D03*
X12992D02*
D03*
X11417D02*
D03*
X12205D02*
D03*
X10630D02*
D03*
X9843D02*
D03*
X9055D02*
D03*
X8268D02*
D03*
X7480D02*
D03*
X6693D02*
D03*
X13780Y12992D02*
D03*
X14567D02*
D03*
X15354D02*
D03*
X14567Y13780D02*
D03*
X15354D02*
D03*
Y14567D02*
D03*
X14567D02*
D03*
X13780D02*
D03*
X12992D02*
D03*
Y13780D02*
D03*
Y12992D02*
D03*
X12205D02*
D03*
Y13780D02*
D03*
Y14567D02*
D03*
X11417Y12992D02*
D03*
Y13780D02*
D03*
Y14567D02*
D03*
X6693Y15354D02*
D03*
X7480D02*
D03*
X8268D02*
D03*
X9055D02*
D03*
X9843D02*
D03*
X10630D02*
D03*
X11417D02*
D03*
X12992D02*
D03*
X12205D02*
D03*
X13780D02*
D03*
X14567D02*
D03*
X15354D02*
D03*
X3543Y14567D02*
D03*
X2756D02*
D03*
Y13780D02*
D03*
X3543D02*
D03*
Y12992D02*
D03*
X2756D02*
D03*
X394D02*
D03*
Y13780D02*
D03*
Y14567D02*
D03*
Y15354D02*
D03*
X1181D02*
D03*
X1969D02*
D03*
X2756D02*
D03*
X3543D02*
D03*
X4331D02*
D03*
X5118D02*
D03*
X5906D02*
D03*
Y14567D02*
D03*
Y13780D02*
D03*
Y12992D02*
D03*
Y12205D02*
D03*
X5118D02*
D03*
X4331D02*
D03*
X3543D02*
D03*
X2756D02*
D03*
X1969D02*
D03*
X1181D02*
D03*
X394D02*
D03*
X3543Y10630D02*
D03*
X2756D02*
D03*
Y9843D02*
D03*
X3543D02*
D03*
Y9055D02*
D03*
X2756D02*
D03*
X394D02*
D03*
Y9843D02*
D03*
Y10630D02*
D03*
Y11417D02*
D03*
X1181D02*
D03*
X1969D02*
D03*
X2756D02*
D03*
X3543D02*
D03*
X4331D02*
D03*
X5118D02*
D03*
X5906D02*
D03*
Y10630D02*
D03*
Y9843D02*
D03*
Y9055D02*
D03*
Y8268D02*
D03*
X5118D02*
D03*
X4331D02*
D03*
X3543D02*
D03*
X2756D02*
D03*
X1969D02*
D03*
X1181D02*
D03*
X394D02*
D03*
X5906Y6693D02*
D03*
Y5906D02*
D03*
Y7480D02*
D03*
X5118D02*
D03*
X3543D02*
D03*
X4331D02*
D03*
X2756D02*
D03*
X1969D02*
D03*
X1181D02*
D03*
X394D02*
D03*
Y6693D02*
D03*
Y5906D02*
D03*
Y5118D02*
D03*
Y4331D02*
D03*
X1181D02*
D03*
X1969D02*
D03*
X2756D02*
D03*
X3543D02*
D03*
X4331D02*
D03*
X5118D02*
D03*
X5906D02*
D03*
Y5118D02*
D03*
Y3543D02*
D03*
Y2756D02*
D03*
Y1969D02*
D03*
X5118D02*
D03*
Y2756D02*
D03*
Y3543D02*
D03*
X4331D02*
D03*
X3543D02*
D03*
X2756D02*
D03*
X1969D02*
D03*
X1181D02*
D03*
X394D02*
D03*
Y2756D02*
D03*
X1181D02*
D03*
Y1969D02*
D03*
X394D02*
D03*
Y1181D02*
D03*
X1181D02*
D03*
X5118D02*
D03*
X5906D02*
D03*
X10630D02*
D03*
X11417D02*
D03*
X12205D02*
D03*
X12992D02*
D03*
X13780D02*
D03*
X14567D02*
D03*
X15354D02*
D03*
Y394D02*
D03*
X14567D02*
D03*
X13780D02*
D03*
X12992D02*
D03*
X12205D02*
D03*
X11417D02*
D03*
X10630D02*
D03*
X9843D02*
D03*
X9055D02*
D03*
X8268D02*
D03*
X7480D02*
D03*
X6693D02*
D03*
X5906D02*
D03*
X5118D02*
D03*
X4331D02*
D03*
X3543D02*
D03*
X2756D02*
D03*
X1969D02*
D03*
X1181D02*
D03*
X394D02*
D03*
M02*
